<?xml version="1.0" encoding="iso-8859-1"?>
<!-- Generator: Adobe Illustrator 19.0.0, SVG Export Plug-In . SVG Version: 6.00 Build 0)  -->
<svg version="1.1" id="Capa_1" xmlns="http://www.w3.org/2000/svg" xmlns:xlink="http://www.w3.org/1999/xlink" x="0px" y="0px"
	 viewBox="0 0 480 480" style="enable-background:new 0 0 480 480;" xml:space="preserve">
<g>
	<g>
		<path d="M408,64h-80V40c-0.026-22.08-17.92-39.974-40-40h-96c-22.08,0.026-39.974,17.92-40,40v24H72c-4.418,0-8,3.582-8,8
			s3.582,8,8,8h24v360c0.026,22.08,17.92,39.974,40,40h208c22.08-0.026,39.974-17.92,40-40V80h24c4.418,0,8-3.582,8-8
			S412.418,64,408,64z M168,40c0-13.255,10.745-24,24-24h96c13.255,0,24,10.745,24,24v24H168V40z M368,440c0,13.255-10.745,24-24,24
			H136c-13.255,0-24-10.745-24-24V80h256V440z"/>
	</g>
</g>
<g>
	<g>
		<path d="M176,120c-4.418,0-8,3.582-8,8v288c0,4.418,3.582,8,8,8s8-3.582,8-8V128C184,123.582,180.418,120,176,120z"/>
	</g>
</g>
<g>
	<g>
		<path d="M304,120c-4.418,0-8,3.582-8,8v288c0,4.418,3.582,8,8,8s8-3.582,8-8V128C312,123.582,308.418,120,304,120z"/>
	</g>
</g>
<g>
	<g>
		<path d="M240,120c-4.418,0-8,3.582-8,8v288c0,4.418,3.582,8,8,8s8-3.582,8-8V128C248,123.582,244.418,120,240,120z"/>
	</g>
</g>
<g>
</g>
<g>
</g>
<g>
</g>
<g>
</g>
<g>
</g>
<g>
</g>
<g>
</g>
<g>
</g>
<g>
</g>
<g>
</g>
<g>
</g>
<g>
</g>
<g>
</g>
<g>
</g>
<g>
</g>
</svg>
